<?xml version="1.0" encoding="UTF-8"?>
<!-- Generated by Pixelmator Pro 3.7.1 -->
<svg width="512" height="512" viewBox="0 0 512 512" xmlns="http://www.w3.org/2000/svg">
    <path id="Path" fill="#f7f3e9" stroke="none" visibility="hidden" d="M 112 0 L 400 0 C 461.855896 0 512 50.144104 512 112 L 512 400 C 512 461.855896 461.855896 512 400 512 L 112 512 C 50.144108 512 0 461.855896 0 400 L 0 112 C -0 50.144104 50.144108 0 112 0 Z"/>
    <path id="path1" fill="#4f7c6d" stroke="none" d="M 105 253 L 256 126 L 407 253 L 407 401 C 407 415.911682 394.911682 428 380 428 L 132 428 C 117.08831 428 105 415.911682 105 401 L 105 253 Z"/>
    <path id="path2" fill="#fffdf8" stroke="none" d="M 192 428 L 192 299 L 320 299 L 320 428"/>
    <path id="path3" fill="#e3a94a" stroke="none" d="M 420 158 C 420 188.375671 395.375671 213 365 213 C 334.624329 213 310 188.375671 310 158 C 310 127.624329 334.624329 103 365 103 C 395.375671 103 420 127.624329 420 158 Z"/>
</svg>
